<svg width="16" height="14" viewBox="0 0 16 14" fill="none" xmlns="http://www.w3.org/2000/svg">
<path fill-rule="evenodd" clip-rule="evenodd" d="M10.3005 1.22816C11.0649 1.53238 11.2987 2.59184 11.6112 2.93238C11.9238 3.27292 12.371 3.3887 12.6185 3.3887C13.9337 3.3887 15 4.45497 15 5.76946V10.1549C15 11.9181 13.5697 13.3484 11.8065 13.3484H4.19351C2.42951 13.3484 1 11.9181 1 10.1549V5.76946C1 4.45497 2.06627 3.3887 3.38151 3.3887C3.62822 3.3887 4.07546 3.27292 4.38876 2.93238C4.7013 2.59184 4.93438 1.53238 5.6987 1.22816C6.46378 0.923946 9.53622 0.923946 10.3005 1.22816Z" stroke="#F7F7F9" stroke-linecap="round" stroke-linejoin="round"/>
<path d="M12.1562 5.35103H12.163" stroke="#F7F7F9" stroke-width="2" stroke-linecap="round" stroke-linejoin="round"/>
<path fill-rule="evenodd" clip-rule="evenodd" d="M10.4052 8.09714C10.4052 6.76827 9.32834 5.69141 7.99948 5.69141C6.67061 5.69141 5.59375 6.76827 5.59375 8.09714C5.59375 9.426 6.67061 10.5029 7.99948 10.5029C9.32834 10.5029 10.4052 9.426 10.4052 8.09714Z" stroke="#F7F7F9" stroke-linecap="round" stroke-linejoin="round"/>
</svg>
