<svg width="28" height="28" viewBox="0 0 28 28" fill="none" xmlns="http://www.w3.org/2000/svg">
<path d="M18.9468 4.08337H9.03011C7.48301 4.08337 5.99928 4.69796 4.90532 5.79192C3.81136 6.88588 3.19678 8.36961 3.19678 9.91671V18.0834C3.19678 18.8494 3.34766 19.608 3.64081 20.3157C3.93397 21.0234 4.36365 21.6665 4.90532 22.2082C5.99928 23.3021 7.48301 23.9167 9.03011 23.9167H18.9468C19.7128 23.9167 20.4714 23.7658 21.1791 23.4727C21.8868 23.1795 22.5299 22.7498 23.0716 22.2082C23.6132 21.6665 24.0429 21.0234 24.3361 20.3157C24.6292 19.608 24.7801 18.8494 24.7801 18.0834V9.91671C24.7801 9.15066 24.6292 8.39212 24.3361 7.68439C24.0429 6.97665 23.6132 6.33359 23.0716 5.79192C22.5299 5.25024 21.8868 4.82056 21.1791 4.52741C20.4714 4.23426 19.7128 4.08337 18.9468 4.08337Z" stroke="#ADB5BD" stroke-width="1.5" stroke-linecap="round" stroke-linejoin="round"/>
<path d="M3.48828 19.8334L6.69661 16.1C7.11643 15.6831 7.66741 15.424 8.25631 15.3666C8.84521 15.3092 9.43585 15.457 9.92828 15.785C10.4207 16.1131 11.0114 16.2609 11.6003 16.2035C12.1892 16.1461 12.7401 15.887 13.1599 15.47L15.8783 12.7517C16.6594 11.968 17.6935 11.4873 18.7962 11.3954C19.8988 11.3035 20.9983 11.6064 21.8983 12.25L24.8033 14.5017M9.32161 11.865C9.57594 11.865 9.82778 11.8149 10.0627 11.7176C10.2977 11.6203 10.5112 11.4776 10.691 11.2978C10.8709 11.118 11.0135 10.9045 11.1109 10.6695C11.2082 10.4345 11.2583 10.1827 11.2583 9.92837C11.2583 9.67404 11.2082 9.4222 11.1109 9.18724C11.0135 8.95227 10.8709 8.73877 10.691 8.55894C10.5112 8.3791 10.2977 8.23645 10.0627 8.13912C9.82778 8.04179 9.57594 7.9917 9.32161 7.9917C8.80798 7.9917 8.31538 8.19574 7.95218 8.55894C7.58899 8.92213 7.38495 9.41473 7.38495 9.92837C7.38495 10.442 7.58899 10.9346 7.95218 11.2978C8.31538 11.661 8.80798 11.865 9.32161 11.865Z" stroke="#ADB5BD" stroke-width="1.5" stroke-linecap="round" stroke-linejoin="round"/>
</svg>
